Coordinates
version=1
nRows=14
nColumns=42
inDegrees=yes

Units are S.I. units (second, meters, Newtons, ...)
If the header above contains a line with 'inDegrees', this indicates whether rotational values are in degrees (yes) or radians (no).

endheader
time	pelvis_tilt	pelvis_list	pelvis_rotation	pelvis_tx	pelvis_ty	pelvis_tz	hip_flexion_r	hip_adduction_r	hip_rotation_r	knee_angle_r	knee_adduction_r	knee_angle_r_beta	ankle_angle_r	subtalar_angle_r	mtp_angle_r	hip_flexion_l	hip_adduction_l	hip_rotation_l	knee_angle_l	knee_adduction_l	knee_angle_l_beta	ankle_angle_l	subtalar_angle_l	mtp_angle_l	lumbar_extension	lumbar_bending	lumbar_rotation	arm_flex_r	arm_add_r	arm_rot_r	elbow_flex_r	pro_sup_r	wrist_flex_r	wrist_dev_r	arm_flex_l	arm_add_l	arm_rot_l	elbow_flex_l	pro_sup_l	wrist_flex_l	wrist_dev_l
      0.60000000	     -3.30284617	     -1.08215541	     -1.71560515	     -0.70402066	      0.85767985	     -0.39219634	     27.37240618	     -1.04134326	     -8.00833138	     21.24877702	      6.61869059	      0.37086112	      1.57238246	     -5.81437815	     -7.87696981	     -9.40237155	     -3.42823264	      0.05444113	      4.04833167	     11.97691899	      0.07065672	     17.92843926	     -0.91504528	     -7.87696981	     -3.14966196	      2.70610771	     -0.45403500	     -5.22548072	    -16.65937121	      4.05677982	     32.34892176	     90.00000001	      0.00000000	      0.00000000	      8.42910121	    -12.44452414	    -14.22890896	     33.85865909	     90.00000001	      0.00000000	      0.00000000
      0.61000000	     -3.32308379	     -0.93615932	     -1.40935930	     -0.69207833	      0.85560315	     -0.39217810	     27.05934563	     -1.30901136	     -8.36424284	     18.20132824	      6.70807333	      0.31767311	      1.38580098	     -4.53865137	     -7.85789054	    -10.16546834	     -3.31709754	      0.14879939	      4.22688190	     12.03324263	      0.07377301	     18.29225716	     -0.66242176	     -7.85789054	     -2.97260847	      2.66139076	     -0.96469858	     -5.66023287	    -16.79883460	      3.67328350	     32.37186405	     90.00000001	      0.00000000	      0.00000000	      8.68565421	    -12.56587461	    -13.95498055	     34.06529375	     90.00000001	      0.00000000	      0.00000000
      0.62000000	     -3.50917202	     -0.63014403	     -1.13484530	     -0.68026441	      0.85330913	     -0.39215864	     27.00659122	     -1.76606399	     -8.54982007	     15.63263247	      6.85787327	      0.27284091	      1.33953676	     -3.23184533	     -7.84849086	    -10.63939514	     -3.03627481	      0.34603032	      4.59390943	     12.08427615	      0.08017885	     18.61546825	     -0.50349624	     -7.84849086	     -2.62937114	      2.43941627	     -1.43042851	     -6.07728970	    -16.93585550	      3.38404259	     32.35553205	     90.00000001	      0.00000000	      0.00000000	      8.91646653	    -12.68726179	    -13.70268016	     34.28729861	     90.00000001	      0.00000000	      0.00000000
      0.63000000	     -3.45875342	     -0.60977455	     -0.80615819	     -0.66801073	      0.85141364	     -0.39196896	     26.56248476	     -1.87838820	     -8.83462020	     13.26000740	      6.85617856	      0.23143079	      1.30844282	     -1.97447108	     -7.83565854	    -11.42343452	     -3.11796061	      0.54964385	      4.92178775	     12.14837177	      0.08590140	     18.85335314	     -0.35794728	     -7.83565854	     -2.52683207	      2.52582663	     -1.94293866	     -6.43643563	    -17.04844653	      2.90549080	     32.31105385	     90.00000001	      0.00000000	      0.00000000	      9.05894836	    -12.80525510	    -13.36190278	     34.55207848	     90.00000001	      0.00000000	      0.00000000
      0.64000000	     -3.75478785	     -0.38082656	     -0.59749109	     -0.65592517	      0.84919199	     -0.39185615	     26.70675961	     -2.24271750	     -8.97073997	     11.66377413	      6.95636094	      0.20357126	      1.15396015	     -0.98030677	     -7.83050326	    -11.73038272	     -2.89545825	      0.81924463	      5.41039278	     12.08291397	      0.09442917	     18.93638363	     -0.27129964	     -7.83050326	     -2.04076170	      2.41041298	     -2.34485844	     -6.83529832	    -17.24094479	      2.68719562	     32.33513523	     90.00000001	      0.00000000	      0.00000000	      9.12236165	    -12.85911334	    -13.17688263	     34.79093800	     90.00000001	      0.00000000	      0.00000000
      0.65000000	     -3.91049343	     -0.31843944	     -0.30281518	     -0.64372465	      0.84732271	     -0.39154831	     26.58907567	     -2.39470279	     -8.96476132	     10.27277804	      6.95381819	      0.17929380	      1.17619610	     -0.00594763	     -7.82508239	    -12.10686007	     -2.97116623	      1.21732334	      6.05266120	     12.17802115	      0.10563887	     18.95219497	     -0.27735375	     -7.82508239	     -1.73225404	      2.45152910	     -2.80009085	     -7.14496057	    -17.38130008	      2.37110390	     32.26374656	     90.00000001	      0.00000000	      0.00000000	      9.15727435	    -12.94477806	    -12.92443698	     35.08467989	     90.00000001	      0.00000000	      0.00000000
      0.66000000	     -3.98920065	     -0.44317564	     -0.02555130	     -0.63137184	      0.84577465	     -0.39100262	     26.40380758	     -2.30205635	     -8.99595045	      9.35191003	      6.85003868	      0.16322162	      1.17322021	      0.74998208	     -7.81856470	    -12.50685049	     -3.31184513	      1.58195087	      6.82768510	     12.35058609	      0.11916559	     18.79540768	     -0.37812352	     -7.81856470	     -1.52250581	      2.68279422	     -3.22678858	     -7.38394051	    -17.50194303	      1.97945210	     32.14114619	     90.00000001	      0.00000000	      0.00000000	      9.11337760	    -13.00721328	    -12.64401295	     35.43957568	     90.00000001	      0.00000000	      0.00000000
      0.67000000	     -4.12544167	     -0.52451094	      0.05335447	     -0.61907318	      0.84436375	     -0.39038312	     26.47630257	     -2.21243576	     -8.90865589	      9.18533733	      6.78346163	      0.16031438	      1.17405941	      1.05997171	     -7.81490199	    -12.82904618	     -3.51915526	      1.97932091	      7.61055733	     12.44618293	      0.13282928	     18.49884466	     -0.38472738	     -7.81490199	     -1.28141135	      2.90115098	     -3.37095620	     -7.64298335	    -17.71637948	      1.78626657	     32.01221806	     90.00000001	      0.00000000	      0.00000000	      9.12889006	    -12.94753661	    -12.52239325	     35.74878273	     90.00000001	      0.00000000	      0.00000000
      0.68000000	     -4.23727293	     -0.54803025	      0.02791564	     -0.60630393	      0.84320850	     -0.38960414	     26.50866393	     -2.14318335	     -8.66659474	      9.38595637	      6.72651507	      0.16381584	      1.13011649	      1.21599525	     -7.81289332	    -13.25345093	     -3.63684113	      2.34804409	      8.27262046	     12.51488259	      0.14438446	     18.27641331	     -0.33111986	     -7.81289332	     -0.97728712	      3.05016766	     -3.49268531	     -7.88521284	    -17.93124178	      1.67770322	     31.92075590	     90.00000001	      0.00000000	      0.00000000	      8.96183277	    -12.92387929	    -12.48281451	     35.85684129	     90.00000001	      0.00000000	      0.00000000
      0.69000000	     -4.35626784	     -1.17895077	      0.49018303	     -0.59380479	      0.84252096	     -0.38868811	     26.22869376	     -1.47296115	     -8.63144644	      9.29999285	      6.44310337	      0.16231550	      1.06940033	      1.38764220	     -7.80509055	    -12.96726779	     -4.74746748	      2.49347491	     10.28490424	     12.98847024	      0.17950544	     17.03771730	     -1.23577099	     -7.80509055	     -0.74682106	      3.79914649	     -4.07758316	     -7.88130108	    -17.98470846	      1.12395189	     31.56709702	     90.00000001	      0.00000000	      0.00000000	      8.61297769	    -12.94955625	    -12.13788361	     36.59720229	     90.00000001	      0.00000000	      0.00000000
      0.70000000	     -4.41209250	     -1.66038099	      0.58027759	     -0.58099841	      0.84211727	     -0.38758262	     26.05377839	     -0.85918256	     -8.35052064	      9.83723559	      6.26007249	      0.17169215	      0.79052687	      1.03035951	     -7.79681570	    -12.99639743	     -5.52470394	      2.76168010	     11.80225861	     13.31163445	      0.20598827	     16.04493101	     -1.93076620	     -7.79681570	     -0.55128137	      4.42535821	     -4.22420961	     -7.93789069	    -18.12439885	      0.73047656	     31.24184876	     90.00000001	      0.00000000	      0.00000000	      8.31288354	    -12.85561938	    -11.98439409	     37.00742004	     90.00000001	      0.00000000	      0.00000000
      0.71000000	     -4.39726926	     -1.90112872	      0.56087785	     -0.56816876	      0.84203968	     -0.38675432	     25.82175930	     -0.54227838	     -7.68742265	     10.66097473	      6.25557321	      0.18606911	      0.68953808	      0.99097837	     -7.79353554	    -13.16609666	     -5.90811790	      3.42919567	     13.05453492	     13.55220671	      0.22784462	     15.20296517	     -1.99731195	     -7.79353554	     -0.46873138	      4.84081309	     -4.18702988	     -8.04410121	    -18.36617872	      0.60860036	     31.09875929	     90.00000001	      0.00000000	      0.00000000	      8.10379177	    -12.66151521	    -11.95116058	     37.26830465	     90.00000001	      0.00000000	      0.00000000
      0.72000000	     -4.38724708	     -2.45436158	      0.61865654	     -0.55513985	      0.84228673	     -0.38525763	     25.53953996	      0.21947180	     -7.54105203	     11.61469418	      6.03227076	      0.20271466	      0.43560269	      0.02175077	     -7.78604662	    -12.74373163	     -6.86593911	      2.93424098	     15.67944255	     13.98860314	      0.27365790	     13.01822464	     -3.49165457	     -7.78604662	     -0.34443858	      5.48862622	     -4.32326178	     -7.94171002	    -18.42682598	      0.33713541	     30.62868711	     90.00000001	      0.00000000	      0.00000000	      7.56431780	    -12.58367353	    -11.90069547	     37.88767031	     90.00000001	      0.00000000	      0.00000000
      0.73000000	     -4.50594552	     -2.90329011	      0.56270570	     -0.54222806	      0.84267006	     -0.38390658	     25.27879418	      0.87749538	     -6.69071935	     12.41879254	      6.00604515	      0.21674882	     -0.12341617	     -1.18441573	     -7.77599611	    -12.17671877	     -7.61406584	      2.93518946	     18.15408314	     14.42754377	      0.31684852	     11.12394707	     -4.97542200	     -7.77599611	     -0.10175737	      6.05938121	     -4.26488111	     -7.86660994	    -18.53723004	      0.10171782	     30.22086143	     90.00000001	      0.00000000	      0.00000000	      7.09150570	    -12.40681618	    -11.88337865	     38.32618553	     90.00000001	      0.00000000	      0.00000000
